<svg xmlns="http://www.w3.org/2000/svg" data-name="Layer 1" viewBox="0 0 100 125" x="0px" y="0px"><title>88all</title><circle cx="38.18" cy="27.39" r="6.39"/><path d="M27.77,46.68H48.58a.76.76,0,0,0,.76-.76v-.46a9.91,9.91,0,0,0-9.9-9.9H36.91a9.91,9.91,0,0,0-9.9,9.9v.46A.76.76,0,0,0,27.77,46.68Z"/><path d="M83.38,22.32a12,12,0,0,0-12-12H28.62a12,12,0,0,0-12,12V77.68a12,12,0,0,0,12,12H71.38a12,12,0,0,0,12-12Zm-4,55.35a8,8,0,0,1-8,8H28.62a8,8,0,0,1-8-8V22.32a8,8,0,0,1,8-8H71.38a8,8,0,0,1,8,8Z"/><path d="M72.65,28.69H55.4a2,2,0,0,0,0,4H72.65a2,2,0,1,0,0-4Z"/><path d="M72.65,40.69H55.4a2,2,0,1,0,0,4H72.65a2,2,0,0,0,0-4Z"/><path d="M72.65,58.69H28.4a2,2,0,1,0,0,4H72.65a2,2,0,0,0,0-4Z"/><path d="M72.65,70.69H28.4a2,2,0,1,0,0,4H72.65a2,2,0,0,0,0-4Z"/></svg>